{
    "asset" : {
        "generator" : "Khronos glTF Blender I/O v1.6.16",
        "version" : "2.0"
    },
    "scene" : 0,
    "scenes" : [
        {
            "name" : "Scene",
            "nodes" : [
                0,
                1,
                2,
                3
            ]
        }
    ],
    "nodes" : [
        {
            "mesh" : 0,
            "name" : "Walls"
        },
        {
            "mesh" : 1,
            "name" : "Table",
            "scale" : [
                0.5858783721923828,
                1,
                0.5858783721923828
            ],
            "translation" : [
                -2.0702404975891113,
                0.4042697548866272,
                2.220755100250244
            ]
        },
        {
            "mesh" : 2,
            "name" : "Wardrobe",
            "scale" : [
                1.6123582124710083,
                1.4167460203170776,
                0.41377460956573486
            ],
            "translation" : [
                0.3186994791030884,
                1.4167461395263672,
                -1.9094487428665161
            ]
        },
        {
            "mesh" : 3,
            "name" : "Floor"
        }
    ],
    "materials" : [
        {
            "doubleSided" : true,
            "name" : "Material.002",
            "pbrMetallicRoughness" : {
                "baseColorFactor" : [
                    0.8000000715255737,
                    0.4504585862159729,
                    0.1991296112537384,
                    1
                ],
                "metallicFactor" : 0,
                "roughnessFactor" : 0.5
            }
        },
        {
            "doubleSided" : true,
            "name" : "Material.001",
            "pbrMetallicRoughness" : {
                "baseColorFactor" : [
                    0.31081265211105347,
                    0.31081265211105347,
                    0.31081265211105347,
                    1
                ],
                "roughnessFactor" : 0.5
            }
        },
        {
            "doubleSided" : true,
            "name" : "Material.003",
            "pbrMetallicRoughness" : {
                "baseColorFactor" : [
                    0.26676055788993835,
                    0.09055504202842712,
                    0.027273833751678467,
                    1
                ],
                "metallicFactor" : 0,
                "roughnessFactor" : 0.5
            }
        },
        {
            "doubleSided" : true,
            "name" : "Material",
            "pbrMetallicRoughness" : {
                "baseColorFactor" : [
                    0.12823885679244995,
                    0.034228578209877014,
                    0.010183217003941536,
                    1
                ],
                "metallicFactor" : 0,
                "roughnessFactor" : 0.4000000059604645
            }
        }
    ],
    "meshes" : [
        {
            "name" : "Plane",
            "primitives" : [
                {
                    "attributes" : {
                        "POSITION" : 0,
                        "NORMAL" : 1,
                        "TEXCOORD_0" : 2
                    },
                    "indices" : 3,
                    "material" : 0
                }
            ]
        },
        {
            "name" : "Cylinder.001",
            "primitives" : [
                {
                    "attributes" : {
                        "POSITION" : 4,
                        "NORMAL" : 5,
                        "TEXCOORD_0" : 6
                    },
                    "indices" : 7,
                    "material" : 1
                }
            ]
        },
        {
            "name" : "Cube.001",
            "primitives" : [
                {
                    "attributes" : {
                        "POSITION" : 8,
                        "NORMAL" : 9,
                        "TEXCOORD_0" : 10
                    },
                    "indices" : 11,
                    "material" : 2
                }
            ]
        },
        {
            "name" : "Plane.009",
            "primitives" : [
                {
                    "attributes" : {
                        "POSITION" : 12,
                        "NORMAL" : 13,
                        "TEXCOORD_0" : 14
                    },
                    "indices" : 15,
                    "material" : 3
                }
            ]
        }
    ],
    "accessors" : [
        {
            "bufferView" : 0,
            "componentType" : 5126,
            "count" : 126,
            "max" : [
                2.6364917755126953,
                3.799999952316284,
                2.6364917755126953
            ],
            "min" : [
                -2.6364917755126953,
                -0.4000000059604645,
                -2.6364917755126953
            ],
            "type" : "VEC3"
        },
        {
            "bufferView" : 1,
            "componentType" : 5126,
            "count" : 126,
            "type" : "VEC3"
        },
        {
            "bufferView" : 2,
            "componentType" : 5126,
            "count" : 126,
            "type" : "VEC2"
        },
        {
            "bufferView" : 3,
            "componentType" : 5123,
            "count" : 240,
            "type" : "SCALAR"
        },
        {
            "bufferView" : 4,
            "componentType" : 5126,
            "count" : 84,
            "max" : [
                0.09749279171228409,
                0.5,
                0.10000000149011612
            ],
            "min" : [
                -0.09749279171228409,
                -0.5,
                -0.10000000149011612
            ],
            "type" : "VEC3"
        },
        {
            "bufferView" : 5,
            "componentType" : 5126,
            "count" : 84,
            "type" : "VEC3"
        },
        {
            "bufferView" : 6,
            "componentType" : 5126,
            "count" : 84,
            "type" : "VEC2"
        },
        {
            "bufferView" : 7,
            "componentType" : 5123,
            "count" : 156,
            "type" : "SCALAR"
        },
        {
            "bufferView" : 8,
            "componentType" : 5126,
            "count" : 24,
            "max" : [
                1,
                1,
                1
            ],
            "min" : [
                -1,
                -1,
                -1
            ],
            "type" : "VEC3"
        },
        {
            "bufferView" : 9,
            "componentType" : 5126,
            "count" : 24,
            "type" : "VEC3"
        },
        {
            "bufferView" : 10,
            "componentType" : 5126,
            "count" : 24,
            "type" : "VEC2"
        },
        {
            "bufferView" : 11,
            "componentType" : 5123,
            "count" : 36,
            "type" : "SCALAR"
        },
        {
            "bufferView" : 12,
            "componentType" : 5126,
            "count" : 132,
            "max" : [
                2.709138870239258,
                0,
                -1.4583333730697632
            ],
            "min" : [
                -2.250000238418579,
                -0.10000000149011612,
                -2.25
            ],
            "type" : "VEC3"
        },
        {
            "bufferView" : 13,
            "componentType" : 5126,
            "count" : 132,
            "type" : "VEC3"
        },
        {
            "bufferView" : 14,
            "componentType" : 5126,
            "count" : 132,
            "type" : "VEC2"
        },
        {
            "bufferView" : 15,
            "componentType" : 5123,
            "count" : 198,
            "type" : "SCALAR"
        }
    ],
    "bufferViews" : [
        {
            "buffer" : 0,
            "byteLength" : 1512,
            "byteOffset" : 0
        },
        {
            "buffer" : 0,
            "byteLength" : 1512,
            "byteOffset" : 1512
        },
        {
            "buffer" : 0,
            "byteLength" : 1008,
            "byteOffset" : 3024
        },
        {
            "buffer" : 0,
            "byteLength" : 480,
            "byteOffset" : 4032
        },
        {
            "buffer" : 0,
            "byteLength" : 1008,
            "byteOffset" : 4512
        },
        {
            "buffer" : 0,
            "byteLength" : 1008,
            "byteOffset" : 5520
        },
        {
            "buffer" : 0,
            "byteLength" : 672,
            "byteOffset" : 6528
        },
        {
            "buffer" : 0,
            "byteLength" : 312,
            "byteOffset" : 7200
        },
        {
            "buffer" : 0,
            "byteLength" : 288,
            "byteOffset" : 7512
        },
        {
            "buffer" : 0,
            "byteLength" : 288,
            "byteOffset" : 7800
        },
        {
            "buffer" : 0,
            "byteLength" : 192,
            "byteOffset" : 8088
        },
        {
            "buffer" : 0,
            "byteLength" : 72,
            "byteOffset" : 8280
        },
        {
            "buffer" : 0,
            "byteLength" : 1584,
            "byteOffset" : 8352
        },
        {
            "buffer" : 0,
            "byteLength" : 1584,
            "byteOffset" : 9936
        },
        {
            "buffer" : 0,
            "byteLength" : 1056,
            "byteOffset" : 11520
        },
        {
            "buffer" : 0,
            "byteLength" : 396,
            "byteOffset" : 12576
        }
    ],
    "buffers" : [
        {
            "byteLength" : 12972,
            "uri" : "data:application/octet-stream;base64,"
        }
    ]
}
